<?xml version="1.0" encoding="UTF-8"?>
<svg version="1.1" xmlns="http://www.w3.org/2000/svg" width="128" height="128">
<path d="M0 0 C42.24 0 84.48 0 128 0 C128 42.24 128 84.48 128 128 C85.76 128 43.52 128 0 128 C0 85.76 0 43.52 0 0 Z " fill="#F9F8F9" transform="translate(0,0)"/>
<path d="M0 0 C-0.33 0.99 -0.66 1.98 -1 3 C-1.90363281 2.94199219 -2.80726562 2.88398438 -3.73828125 2.82421875 C-4.91777344 2.77910156 -6.09726563 2.73398437 -7.3125 2.6875 C-9.07013672 2.60048828 -9.07013672 2.60048828 -10.86328125 2.51171875 C-11.89839844 2.67285156 -12.93351562 2.83398438 -14 3 C-15.85213848 5.37803231 -15.85213848 5.37803231 -17 8 C-17.99 8.495 -17.99 8.495 -19 9 C-18.67 9.99 -18.34 10.98 -18 12 C-18.66 12 -19.32 12 -20 12 C-20.28875 12.969375 -20.5775 13.93875 -20.875 14.9375 C-22 18 -22 18 -24 19 C-20.56745236 19 -18.23129274 18.14045626 -15 17 C-8.91975446 14.85403099 -5.67972506 14.95440699 0.5 16.8125 C1.6446875 17.14894531 2.789375 17.48539063 3.96875 17.83203125 C6.78816346 18.91837742 8.14181549 19.68390574 10 22 C10.99 21.01 11.98 20.02 13 19 C12.01 18.67 11.02 18.34 10 18 C10 17.34 10 16.68 10 16 C8.68 16 7.36 16 6 16 C6 14.68 6 13.36 6 12 C5.34 12 4.68 12 4 12 C3.34 10.02 2.68 8.04 2 6 C2.66 5.67 3.32 5.34 4 5 C4 5.66 4 6.32 4 7 C4.66 7 5.32 7 6 7 C5.67 8.32 5.34 9.64 5 11 C5.99 11 6.98 11 8 11 C8 11.99 8 12.98 8 14 C8.99 14.33 9.98 14.66 11 15 C11 15.66 11 16.32 11 17 C14.78639125 15.73786958 15.04104596 14.34654649 17 11 C17.99 10.34 18.98 9.68 20 9 C20.99 10.32 21.98 11.64 23 13 C21.41332422 16.90285767 18.86649519 19.33520982 15.875 22.25 C14.50988281 23.58804688 14.50988281 23.58804688 13.1171875 24.953125 C12.41851562 25.62859375 11.71984375 26.3040625 11 27 C8.08482708 25.92598892 6.22189824 25.22189824 4 23 C2.03309626 22.32707499 2.03309626 22.32707499 -0.125 21.875 C-1.40375 21.58625 -2.6825 21.2975 -4 21 C-4 20.34 -4 19.68 -4 19 C-6.56724208 19.73608351 -9.12790506 20.48813623 -11.6875 21.25 C-12.40873047 21.45496094 -13.12996094 21.65992187 -13.87304688 21.87109375 C-19.12616296 23.45422462 -23.42478309 25.29962816 -26.3125 30.25 C-26.539375 30.8275 -26.76625 31.405 -27 32 C-28.65 32 -30.3 32 -32 32 C-30.375 26.25 -30.375 26.25 -27 24 C-26.74969023 21.41619823 -26.74969023 21.41619823 -27 19 C-27.66 19 -28.32 19 -29 19 C-29.99 21.475 -29.99 21.475 -31 24 C-31.66 23.67 -32.32 23.34 -33 23 C-32.67 22.34 -32.34 21.68 -32 21 C-32.33 20.34 -32.66 19.68 -33 19 C-34.32 19.33 -35.64 19.66 -37 20 C-37 18.68 -37 17.36 -37 16 C-36.01 16 -35.02 16 -34 16 C-34.33 15.67 -34.66 15.34 -35 15 C-36.96756452 15.03122943 -36.96756452 15.03122943 -39 16 C-42.51830054 20.16983767 -42.66925658 24.76513005 -43 30 C-43.66 30 -44.32 30 -45 30 C-45.33 30.99 -45.66 31.98 -46 33 C-46.66 33 -47.32 33 -48 33 C-45.97786597 21.50576448 -41.32485648 13.29522868 -32.3125 5.75 C-21.5206702 0.04865595 -11.91599818 -0.50826533 0 0 Z " fill="#BEBEBF" transform="translate(73,20)"/>
<path d="M0 0 C3.06686972 0.32859318 3.91291148 0.89605564 5.9375 3.3125 C6.9584375 4.6428125 6.9584375 4.6428125 8 6 C13.08443512 10.69332473 17.11197876 11.3034537 23.9609375 11.13671875 C32.04921849 10.59440106 35.82883792 6.77558362 41 1 C41.99 1.33 42.98 1.66 44 2 C42.97407374 5.07777878 42.24530756 5.84450474 40 8 C39.34 8.99 38.68 9.98 38 11 C38.495 11.61875 38.99 12.2375 39.5 12.875 C41 15 41 15 41 17 C45.42117715 15.64908476 47.443343 13.8349855 50 10 C51.1735237 6.93078417 51.07723233 6.231697 50 3 C49.01 2.67 48.02 2.34 47 2 C50.63 1.67 54.26 1.34 58 1 C56.08452183 10.57739084 51.33990276 17.61791422 44 24 C35.00734231 29.97818346 25.99194747 34.32687432 15 33 C2.21676953 29.14342072 -7.05720394 22.19696009 -14.8125 11.5 C-16.43818489 8.07750549 -17.18484142 4.69956588 -18 1 C-17.34 1 -16.68 1 -16 1 C-15.63648438 1.80824219 -15.27296875 2.61648437 -14.8984375 3.44921875 C-11.93433713 9.74983211 -9.58222186 13.87978863 -4 18 C-4 18.99 -4 19.98 -4 21 C-3.01 21 -2.02 21 -1 21 C-1 21.66 -1 22.32 -1 23 C-0.13375 23.268125 0.7325 23.53625 1.625 23.8125 C4.91791964 24.97111987 7.91127875 26.38209839 11 28 C11.33 27.34 11.66 26.68 12 26 C12 26.99 12 27.98 12 29 C13.41623216 29.05447047 14.83308191 29.09300508 16.25 29.125 C17.43335937 29.15980469 17.43335937 29.15980469 18.640625 29.1953125 C21.2183574 28.98192406 22.73551554 28.18981387 25 27 C27.25 27.375 27.25 27.375 29 28 C30.30859649 26.30287793 30.30859649 26.30287793 31 24 C30.13207348 21.35824313 30.13207348 21.35824313 28 19 C25.29013277 17.90446009 22.86618262 17.08784321 20.0625 16.375 C11.39299609 14.06521318 11.39299609 14.06521318 8 11 C8 11.99 8 12.98 8 14 C7.34 14 6.68 14 6 14 C6.12375 13.319375 6.2475 12.63875 6.375 11.9375 C5.87227936 7.99952167 3.99881713 6.35524659 1.3125 3.55078125 C0 2 0 2 0 0 Z " fill="#1B1B1B" transform="translate(44,75)"/>
<path d="M0 0 C2.5625 2.1875 2.5625 2.1875 5 5 C4.8125 7.8125 4.8125 7.8125 4 10 C4.66 10 5.32 10 6 10 C6 9.01 6 8.02 6 7 C6.495 7.268125 6.99 7.53625 7.5 7.8125 C12.29030428 10.08789453 17.03052831 11.84845579 22.25 12.8125 C27.02411133 14.32430192 27.75198802 15.69131036 30 20 C29.25 21.9375 29.25 21.9375 28 24 C25.17805079 25.12877968 23.12179761 25 20 25 C19.67 25.33 19.34 25.66 19 26 C10.89177032 25.61389382 3.79037402 23.52691601 -3 19 C-3 18.34 -3 17.68 -3 17 C-3.99 17 -4.98 17 -6 17 C-8.35723489 14.46815512 -9 13.52809907 -9 10 C-5.66666667 7 -5.66666667 7 -3 7 C-2.67 6.01 -2.34 5.02 -2 4 C-2.66 4 -3.32 4 -4 4 C-3.67 3.01 -3.34 2.02 -3 1 C-2.01 0.67 -1.02 0.34 0 0 Z " fill="#DCDBDC" transform="translate(46,79)"/>
<path d="M0 0 C1.98 0.66 3.96 1.32 6 2 C6 2.66 6 3.32 6 4 C5.01 4.66 4.02 5.32 3 6 C3.33 7.65 3.66 9.3 4 11 C4.66 11 5.32 11 6 11 C6 12.32 6 13.64 6 15 C7.32 15 8.64 15 10 15 C10 15.66 10 16.32 10 17 C11.32 17.33 12.64 17.66 14 18 C12.68 19.32 11.36 20.64 10 22 C9.4225 21.401875 8.845 20.80375 8.25 20.1875 C3.37483859 16.90614136 -3.06000864 15 -9 15 C-10.98888153 15.61526551 -12.96680227 16.26626841 -14.9375 16.9375 C-15.99839844 17.29714844 -17.05929688 17.65679687 -18.15234375 18.02734375 C-19.09207031 18.34832031 -20.03179687 18.66929688 -21 19 C-21.99 19.33 -22.98 19.66 -24 20 C-24.33 19.01 -24.66 18.02 -25 17 C-24.01 17 -23.02 17 -22 17 C-22.33 16.01 -22.66 15.02 -23 14 C-22.360625 13.443125 -21.72125 12.88625 -21.0625 12.3125 C-18.81845025 10.18929631 -18.81845025 10.18929631 -18.5 7.5 C-17.82718229 4.13591146 -16.69656946 3.09635105 -14 1 C-10.80078125 0.64453125 -10.80078125 0.64453125 -7.3125 0.8125 C-5.20918595 0.89906576 -3.10484699 0.96770807 -1 1 C-0.67 0.67 -0.34 0.34 0 0 Z " fill="#FBFBFB" transform="translate(73,21)"/>
<path d="M0 0 C0.495 0.99 0.495 0.99 1 2 C1.66 2 2.32 2 3 2 C2.67 3.32 2.34 4.64 2 6 C2.99 6 3.98 6 5 6 C5 6.99 5 7.98 5 9 C5.99 9.33 6.98 9.66 8 10 C8 10.66 8 11.32 8 12 C11.78639125 10.73786958 12.04104596 9.34654649 14 6 C14.99 5.34 15.98 4.68 17 4 C17.99 5.32 18.98 6.64 20 8 C18.41332422 11.90285767 15.86649519 14.33520982 12.875 17.25 C11.50988281 18.58804688 11.50988281 18.58804688 10.1171875 19.953125 C9.41851562 20.62859375 8.71984375 21.3040625 8 22 C5.08482708 20.92598892 3.22189824 20.22189824 1 18 C-0.96690374 17.32707499 -0.96690374 17.32707499 -3.125 16.875 C-4.40375 16.58625 -5.6825 16.2975 -7 16 C-7 15.34 -7 14.68 -7 14 C-9.56724208 14.73608351 -12.12790506 15.48813623 -14.6875 16.25 C-15.40873047 16.45496094 -16.12996094 16.65992187 -16.87304688 16.87109375 C-22.12616296 18.45422462 -26.42478309 20.29962816 -29.3125 25.25 C-29.539375 25.8275 -29.76625 26.405 -30 27 C-31.65 27 -33.3 27 -35 27 C-33.7873518 22.45256924 -32.72604437 20.73243254 -29 18 C-29 16.68 -29 15.36 -29 14 C-28.01 14.33 -27.02 14.66 -26 15 C-23.68658729 14.31194495 -23.68658729 14.31194495 -21.25 13.1875 C-17.19802253 11.47045969 -13.25470081 10.10992195 -9 9 C-9 9.33 -9 9.66 -9 10 C-8.09636719 10.25394531 -7.19273438 10.50789063 -6.26171875 10.76953125 C-5.08222656 11.11371094 -3.90273437 11.45789062 -2.6875 11.8125 C-1.51574219 12.14894531 -0.34398437 12.48539063 0.86328125 12.83203125 C3.76073981 13.91091059 5.11463152 14.62457184 7 17 C7.99 16.01 8.98 15.02 10 14 C9.01 13.67 8.02 13.34 7 13 C7 12.34 7 11.68 7 11 C5.68 11 4.36 11 3 11 C3 9.68 3 8.36 3 7 C2.34 7 1.68 7 1 7 C0.34 5.02 -0.32 3.04 -1 1 C-0.67 0.67 -0.34 0.34 0 0 Z " fill="#171717" transform="translate(76,25)"/>
<path d="M0 0 C2.5625 2.1875 2.5625 2.1875 5 5 C4.8125 7.8125 4.8125 7.8125 4 10 C4.66 10 5.32 10 6 10 C6 9.01 6 8.02 6 7 C6.99 7.33 7.98 7.66 9 8 C8.67 9.32 8.34 10.64 8 12 C7.34 12 6.68 12 6 12 C6.99 12.99 7.98 13.98 9 15 C9.33 14.34 9.66 13.68 10 13 C10.66 14.98 11.32 16.96 12 19 C10.35 19.33 8.7 19.66 7 20 C7.33 20.99 7.66 21.98 8 23 C3.87248551 22.39301257 0.6678852 20.96189209 -3 19 C-3 18.34 -3 17.68 -3 17 C-3.99 17 -4.98 17 -6 17 C-8.35723489 14.46815512 -9 13.52809907 -9 10 C-5.66666667 7 -5.66666667 7 -3 7 C-2.67 6.01 -2.34 5.02 -2 4 C-2.66 4 -3.32 4 -4 4 C-3.67 3.01 -3.34 2.02 -3 1 C-2.01 0.67 -1.02 0.34 0 0 Z " fill="#E3E2E3" transform="translate(46,79)"/>
<path d="M0 0 C1.98 0.66 3.96 1.32 6 2 C6 2.66 6 3.32 6 4 C5.01 4.66 4.02 5.32 3 6 C3.33 7.65 3.66 9.3 4 11 C4.66 11 5.32 11 6 11 C6 12.32 6 13.64 6 15 C7.32 15 8.64 15 10 15 C10 15.66 10 16.32 10 17 C11.32 17.33 12.64 17.66 14 18 C12.68 19.32 11.36 20.64 10 22 C9.4225 21.401875 8.845 20.80375 8.25 20.1875 C3.54660496 17.02175334 -1.50413038 16.15702518 -7 15 C-6.67 13.68 -6.34 12.36 -6 11 C-6.99 10.67 -7.98 10.34 -9 10 C-7.55873214 6.63704165 -5.79407345 4.37072898 -3 2 C-2.01 2 -1.02 2 0 2 C0 1.34 0 0.68 0 0 Z " fill="#CDCDCD" transform="translate(73,21)"/>
<path d="M0 0 C0.33 0.66 0.66 1.32 1 2 C0.01 2 -0.98 2 -2 2 C-2 2.66 -2 3.32 -2 4 C-1.01 4.33 -0.02 4.66 1 5 C1.66 4.67 2.32 4.34 3 4 C3.33 5.32 3.66 6.64 4 8 C4.66 7.01 5.32 6.02 6 5 C6.66 5 7.32 5 8 5 C8.33 6.65 8.66 8.3 9 10 C8.38125 10.20625 7.7625 10.4125 7.125 10.625 C4.15346355 12.54775888 3.86975341 14.66594527 3 18 C4.65 18 6.3 18 8 18 C8 18.33 8 18.66 8 19 C5.36 19 2.72 19 0 19 C0 16.36 0 13.72 0 11 C-0.99 11.33 -1.98 11.66 -3 12 C-2.01 13.485 -2.01 13.485 -1 15 C-3.93828597 17.50298434 -6.17902761 18.46930939 -10 19 C-10.33 18.01 -10.66 17.02 -11 16 C-10.34 15.01 -9.68 14.02 -9 13 C-8.44522573 11.08674694 -8.44522573 11.08674694 -8.0625 9.0625 C-7.2793554 5.75993671 -6.51142785 3.41483447 -4 1 C-1.8125 0.25 -1.8125 0.25 0 0 Z " fill="#DBDBDB" transform="translate(38,34)"/>
<path d="M0 0 C-2.29810011 3.94054631 -4.42626396 7.09114509 -8 10 C-11.3125 10.3125 -11.3125 10.3125 -14 10 C-13.34 9.01 -12.68 8.02 -12 7 C-11.01 7 -10.02 7 -9 7 C-9 6.34 -9 5.68 -9 5 C-10.65 5 -12.3 5 -14 5 C-14.66 7.31 -15.32 9.62 -16 12 C-11.05 12.33 -6.1 12.66 -1 13 C-1.66 14.32 -2.32 15.64 -3 17 C-12.88689004 17.77917697 -12.88689004 17.77917697 -17.125 14.8125 C-20.22580645 10.16129032 -20.22580645 10.16129032 -20 7 C-16.20572775 -1.90910003 -8.44211666 -0.72856623 0 0 Z " fill="#1B1B1B" transform="translate(75,56)"/>
<path d="M0 0 C1.61648437 0.04060547 1.61648437 0.04060547 3.265625 0.08203125 C4.08546875 0.11683594 4.9053125 0.15164062 5.75 0.1875 C3.37302761 4.03666174 3.37302761 4.03666174 0.5234375 4.7265625 C-0.26804687 4.75492188 -1.05953125 4.78328125 -1.875 4.8125 C-4.21991509 4.87231785 -4.21991509 4.87231785 -6.25 5.1875 C-6.58 5.8475 -6.91 6.5075 -7.25 7.1875 C-2.96 7.1875 1.33 7.1875 5.75 7.1875 C5.75 12.1875 5.75 12.1875 3.875 14.4375 C0.31948813 17.3655686 -1.82004456 17.29845697 -6.375 17.25 C-7.47070312 17.24097656 -8.56640625 17.23195313 -9.6953125 17.22265625 C-10.95988281 17.20525391 -10.95988281 17.20525391 -12.25 17.1875 C-12.25 16.5275 -12.25 15.8675 -12.25 15.1875 C-8.51043767 12.69445845 -5.81885393 12.78569443 -1.4296875 12.53125 C-0.35074219 12.36109375 -0.35074219 12.36109375 0.75 12.1875 C1.08 11.5275 1.41 10.8675 1.75 10.1875 C-2.54 10.1875 -6.83 10.1875 -11.25 10.1875 C-10.76178061 3.71859309 -10.76178061 3.71859309 -8.59375 1.46875 C-5.56292386 -0.18810162 -3.43271536 -0.11193637 0 0 Z " fill="#1D1D1D" transform="translate(87.25,55.8125)"/>
<path d="M0 0 C4.29 0 8.58 0 13 0 C13 0.33 13 0.66 13 1 C10.69 1.33 8.38 1.66 6 2 C6.61875 2.7734375 6.61875 2.7734375 7.25 3.5625 C8 6 8 6 6.3125 9.5625 C3.16677594 14.46520038 3.16677594 14.46520038 1 16 C-0.32 16 -1.64 16 -3 16 C-3.28875 15.195625 -3.5775 14.39125 -3.875 13.5625 C-4.73262568 10.8673532 -4.73262568 10.8673532 -7 10 C-5.7260411 7.96166576 -4.38938077 5.96147874 -3 4 C-2.34 4 -1.68 4 -1 4 C-0.67 2.68 -0.34 1.36 0 0 Z " fill="#DBDBDB" transform="translate(88,76)"/>
<path d="M0 0 C0.99 0.33 1.98 0.66 3 1 C2 4 2 4 0.5625 5.375 C-1.43074019 7.4479698 -2.19459747 9.24820801 -3 12 C-2.68521554 13.33783393 -2.35412344 14.67203709 -2 16 C-2.66 16.99 -3.32 17.98 -4 19 C-3.01 18.67 -2.02 18.34 -1 18 C-2.47692308 22.67692308 -2.47692308 22.67692308 -5.125 24.3125 C-6.053125 24.6528125 -6.053125 24.6528125 -7 25 C-8 24 -8 24 -8.0625 21.4375 C-8.041875 20.633125 -8.02125 19.82875 -8 19 C-7.34 18.67 -6.68 18.34 -6 18 C-6.9590625 17.566875 -6.9590625 17.566875 -7.9375 17.125 C-10 16 -10 16 -11 14 C-12.98 14.33 -14.96 14.66 -17 15 C-16 13 -16 13 -13 12 C-13.66 11.34 -14.32 10.68 -15 10 C-14.01 9.835 -13.02 9.67 -12 9.5 C-6.72956056 8.0557487 -3.53609947 3.94940979 0 0 Z " fill="#1F1F1F" transform="translate(85,76)"/>
<path d="M0 0 C-1.1484375 1.95703125 -1.1484375 1.95703125 -3 4 C-5.6640625 4.57421875 -5.6640625 4.57421875 -8.625 4.6875 C-12.12408809 4.54630448 -12.12408809 4.54630448 -15 6 C-15.16666667 8.5 -15.16666667 8.5 -15 11 C-13.26043342 12.73956658 -10.8063378 12.37190386 -8.4375 12.5625 C-7.42558594 12.64628906 -6.41367187 12.73007813 -5.37109375 12.81640625 C-4.58863281 12.87699219 -3.80617188 12.93757813 -3 13 C-3.66 14.32 -4.32 15.64 -5 17 C-9.80815498 17.47138774 -12.95351764 17.70477383 -17.0625 14.9375 C-19.5278601 11.19969598 -19.86301172 9.3935142 -19 5 C-14.071387 -1.61842317 -7.67645793 -0.51252316 0 0 Z " fill="#1D1D1D" transform="translate(40,56)"/>
<path d="M0 0 C3.06686972 0.32859318 3.91291148 0.89605564 5.9375 3.3125 C6.618125 4.199375 7.29875 5.08625 8 6 C12.19708851 10.15822658 15.6730735 10.76618861 21.3125 11.25 C22.05306641 11.32734375 22.79363281 11.4046875 23.55664062 11.484375 C25.36958268 11.67151741 27.18464954 11.83787704 29 12 C28.67 12.66 28.34 13.32 28 14 C28.99 14 29.98 14 31 14 C30.34 15.32 29.68 16.64 29 18 C20.93696151 17.48806105 14.73972606 15.49315071 8 11 C8 11.99 8 12.98 8 14 C7.34 14 6.68 14 6 14 C6.12375 13.319375 6.2475 12.63875 6.375 11.9375 C5.87227936 7.99952167 3.99881713 6.35524659 1.3125 3.55078125 C0 2 0 2 0 0 Z " fill="#191919" transform="translate(44,75)"/>
<path d="M0 0 C-0.33 0.99 -0.66 1.98 -1 3 C-2.59328125 2.98259766 -2.59328125 2.98259766 -4.21875 2.96484375 C-14.66479454 2.75739452 -14.66479454 2.75739452 -25 4 C-25.33 4.66 -25.66 5.32 -26 6 C-28.87913993 8.87913993 -32.18342198 9.72780733 -36 11 C-36 11.66 -36 12.32 -36 13 C-36.66 13 -37.32 13 -38 13 C-38.28875 13.763125 -38.5775 14.52625 -38.875 15.3125 C-40 18 -40 18 -42 21 C-42.45394552 23.27912938 -42.45394552 23.27912938 -42.625 25.6875 C-42.69976562 26.49574219 -42.77453125 27.30398437 -42.8515625 28.13671875 C-42.90054688 28.75160156 -42.94953125 29.36648437 -43 30 C-43.66 30 -44.32 30 -45 30 C-45.33 30.99 -45.66 31.98 -46 33 C-46.66 33 -47.32 33 -48 33 C-45.97786597 21.50576448 -41.32485648 13.29522868 -32.3125 5.75 C-21.5206702 0.04865595 -11.91599818 -0.50826533 0 0 Z " fill="#282828" transform="translate(73,20)"/>
<path d="M0 0 C0.33 0 0.66 0 1 0 C1 2.31 1 4.62 1 7 C3.31 7 5.62 7 8 7 C6.75 9 6.75 9 5 11 C3.68 11 2.36 11 1 11 C1.33 13.97 1.66 16.94 2 20 C3.98 20 5.96 20 8 20 C7.01 21.32 6.02 22.64 5 24 C2.08482708 22.92598892 0.22189824 22.22189824 -2 20 C-2.1953125 17.8359375 -2.1953125 17.8359375 -2.125 15.375 C-2.10695313 14.55773438 -2.08890625 13.74046875 -2.0703125 12.8984375 C-2.04710938 12.27195312 -2.02390625 11.64546875 -2 11 C-3.65 11 -5.3 11 -7 11 C-7 10.34 -7 9.68 -7 9 C-6.34 9 -5.68 9 -5 9 C-5 8.34 -5 7.68 -5 7 C-4.01 7 -3.02 7 -2 7 C-2.04125 6.21625 -2.0825 5.4325 -2.125 4.625 C-2 2 -2 2 0 0 Z " fill="#191919" transform="translate(100,49)"/>
<path d="M0 0 C0.66 0 1.32 0 2 0 C2.36351562 0.80824219 2.72703125 1.61648437 3.1015625 2.44921875 C6.06566287 8.74983211 8.41777814 12.87978863 14 17 C14 17.99 14 18.98 14 20 C14.99 20 15.98 20 17 20 C17 20.66 17 21.32 17 22 C17.86625 22.268125 18.7325 22.53625 19.625 22.8125 C22.91791964 23.97111987 25.91127875 25.38209839 29 27 C29.33 26.34 29.66 25.68 30 25 C30.33 26.65 30.66 28.3 31 30 C20.43638036 28.33613317 11.85914395 22.45720466 5.5390625 14.05859375 C2.47040604 9.52656065 1.05205109 5.35589645 0 0 Z " fill="#252525" transform="translate(26,76)"/>
<path d="M0 0 C1.65 0 3.3 0 5 0 C6.52299523 2.93720508 7.80100302 5.9168649 9 9 C8.401875 9.103125 7.80375 9.20625 7.1875 9.3125 C4.71756736 10.08876455 3.67748765 11.07088921 2 13 C-0.62002725 10.62949916 -2.35819909 8.12723983 -4 5 C-4 4.01 -4 3.02 -4 2 C-2.68 2 -1.36 2 0 2 C0 1.34 0 0.68 0 0 Z " fill="#B1B1B1" transform="translate(33,76)"/>
<path d="M0 0 C0.89203125 0.03609375 1.7840625 0.0721875 2.703125 0.109375 C3.71632813 0.17898437 3.71632813 0.17898437 4.75 0.25 C3.9765625 2.203125 3.9765625 2.203125 2.75 4.25 C-0.875 5 -0.875 5 -4.25 5.25 C-4.37375 6.508125 -4.4975 7.76625 -4.625 9.0625 C-4.94868059 12.35325263 -5.31604999 13.34907498 -7.25 16.25 C-7.91 16.25 -8.57 16.25 -9.25 16.25 C-9.35841951 14.33458862 -9.43578079 12.41740227 -9.5 10.5 C-9.54640625 9.43265625 -9.5928125 8.3653125 -9.640625 7.265625 C-9.25 4.25 -9.25 4.25 -7.5625 1.875 C-4.77653091 -0.08270801 -3.36372647 -0.17703824 0 0 Z " fill="#252525" transform="translate(50.25,55.75)"/>
<path d="M0 0 C0.99 0.66 1.98 1.32 3 2 C3.6875 5.625 3.6875 5.625 4 9 C4.99 9.33 5.98 9.66 7 10 C5.1875 10.6875 5.1875 10.6875 3 11 C1.25 9.5625 1.25 9.5625 0 8 C-0.99 9.485 -0.99 9.485 -2 11 C-2.66 11 -3.32 11 -4 11 C-6.29648649 8.4385343 -7 7.52032428 -7 4 C-4.68806023 1.92722641 -2.97064418 0.99021473 0 0 Z " fill="#A2A2A2" transform="translate(44,85)"/>
<path d="M0 0 C2.00451121 0.30503431 4.00448218 0.64080679 6 1 C8.27650745 0.6422386 8.27650745 0.6422386 10 0 C6.55082934 4.80420199 6.55082934 4.80420199 4.17578125 5.6484375 C1.73570661 6.0427045 -0.59053598 6.16885774 -3.0625 6.1875 C-4.34833984 6.20876953 -4.34833984 6.20876953 -5.66015625 6.23046875 C-8 6 -8 6 -11 4 C-11 3.34 -11 2.68 -11 2 C-10.06027344 2.03480469 -10.06027344 2.03480469 -9.1015625 2.0703125 C-7.87566406 2.09738281 -7.87566406 2.09738281 -6.625 2.125 C-5.40683594 2.15980469 -5.40683594 2.15980469 -4.1640625 2.1953125 C-1.78657757 2.21370051 -1.78657757 2.21370051 0 0 Z " fill="#343333" transform="translate(67,102)"/>
<path d="M0 0 C0.33 0.66 0.66 1.32 1 2 C0.01 2 -0.98 2 -2 2 C-2 2.66 -2 3.32 -2 4 C-1.34 4.33 -0.68 4.66 0 5 C0.33 5.66 0.66 6.32 1 7 C0.01 7 -0.98 7 -2 7 C-2 7.66 -2 8.32 -2 9 C-2.99 9.495 -2.99 9.495 -4 10 C-4.33 10.99 -4.66 11.98 -5 13 C-5.66 13 -6.32 13 -7 13 C-7.33 13.99 -7.66 14.98 -8 16 C-8.38353204 11.20584946 -8.43994058 7.87988115 -6.25 3.5 C-4.05574452 1.06193835 -3.21020798 0.22930057 0 0 Z " fill="#E9E9E9" transform="translate(38,34)"/>
<path d="M0 0 C3.96 0.99 3.96 0.99 8 2 C7.01 2.495 7.01 2.495 6 3 C6 3.66 6 4.32 6 5 C5.34 5 4.68 5 4 5 C4 5.66 4 6.32 4 7 C4.66 7 5.32 7 6 7 C5.67 8.32 5.34 9.64 5 11 C3.35 11 1.7 11 0 11 C-0.33 11.66 -0.66 12.32 -1 13 C-1 12.01 -1 11.02 -1 10 C0.65 10 2.3 10 4 10 C1.72584713 6.62911733 1.72584713 6.62911733 -2 5 C-1.34 3.35 -0.68 1.7 0 0 Z " fill="#9A9A9A" transform="translate(54,88)"/>
<path d="M0 0 C0.99 0.33 1.98 0.66 3 1 C2.855625 1.70125 2.71125 2.4025 2.5625 3.125 C1.98521625 6.07556141 1.48304859 9.03270151 1 12 C0.01 12 -0.98 12 -2 12 C-1.67 11.34 -1.34 10.68 -1 10 C-1.33 9.34 -1.66 8.68 -2 8 C-3.32 8.33 -4.64 8.66 -6 9 C-6 7.68 -6 6.36 -6 5 C-5.01 5 -4.02 5 -3 5 C-2.5359375 4.0409375 -2.5359375 4.0409375 -2.0625 3.0625 C-1 1 -1 1 0 0 Z " fill="#A4A4A4" transform="translate(42,31)"/>
<path d="M0 0 C1.32 0.33 2.64 0.66 4 1 C4 1.66 4 2.32 4 3 C3.34 3 2.68 3 2 3 C1.87625 3.9075 1.7525 4.815 1.625 5.75 C0.68421053 10.64210526 0.68421053 10.64210526 -1 13 C-3.625 14.25 -3.625 14.25 -6 15 C-6.33 14.01 -6.66 13.02 -7 12 C-6.01 12 -5.02 12 -4 12 C-4.33 11.01 -4.66 10.02 -5 9 C-4.360625 8.443125 -3.72125 7.88625 -3.0625 7.3125 C-0.80319013 4.77933439 -0.36850953 3.31658576 0 0 Z " fill="#F2F1F2" transform="translate(55,26)"/>
<path d="M0 0 C0.33 0.66 0.66 1.32 1 2 C1.99 2 2.98 2 4 2 C4 2.66 4 3.32 4 4 C4.66 4 5.32 4 6 4 C6.33 4.99 6.66 5.98 7 7 C4.03 7.66 1.06 8.32 -2 9 C-2 5.61976483 -1.12544378 3.16531063 0 0 Z " fill="#BEBEBE" transform="translate(57,29)"/>
<path d="M0 0 C1.68262433 2.22346786 2.36094382 3.58910672 2.75 6.3125 C0.3125 5.9375 0.3125 5.9375 -2.25 5.3125 C-2.58 4.6525 -2.91 3.9925 -3.25 3.3125 C-5.23 3.6425 -7.21 3.9725 -9.25 4.3125 C-8.25 2.3125 -8.25 2.3125 -5.25 1.3125 C-5.91 0.6525 -6.57 -0.0075 -7.25 -0.6875 C-3.95291925 -1.78652692 -2.86175329 -2.14631497 0 0 Z " fill="#6B6B6B" transform="translate(77.25,86.6875)"/>
<path d="M0 0 C6.435 2.97 6.435 2.97 13 6 C13.33 5.34 13.66 4.68 14 4 C14.33 5.65 14.66 7.3 15 9 C11.14974121 8.39644592 8.13898841 7.23227397 4.6875 5.4375 C3.80449219 4.98246094 2.92148437 4.52742188 2.01171875 4.05859375 C1.34785156 3.70925781 0.68398438 3.35992187 0 3 C0 2.01 0 1.02 0 0 Z " fill="#151515" transform="translate(42,97)"/>
<path d="M0 0 C1.32 0.33 2.64 0.66 4 1 C1.33936652 5.68778281 1.33936652 5.68778281 -0.5625 7.4375 C-2.61552547 9.66904943 -3.1695275 12.12528751 -4 15 C-4.66 15 -5.32 15 -6 15 C-5.39644592 11.14974121 -4.23227397 8.13898841 -2.4375 4.6875 C-1.98246094 3.80449219 -1.52742188 2.92148437 -1.05859375 2.01171875 C-0.53458984 1.01591797 -0.53458984 1.01591797 0 0 Z " fill="#575757" transform="translate(20,37)"/>
<path d="M0 0 C2.125 0.375 2.125 0.375 4 1 C4.66 3.31 5.32 5.62 6 8 C4.68 8 3.36 8 2 8 C1.71125 7.195625 1.4225 6.39125 1.125 5.5625 C0.26737432 2.8673532 0.26737432 2.8673532 -2 2 C-1.34 1.34 -0.68 0.68 0 0 Z " fill="#E7E6E7" transform="translate(83,84)"/>
<path d="M0 0 C0.33 0.66 0.66 1.32 1 2 C1.99 1.67 2.98 1.34 4 1 C2.52307692 5.67692308 2.52307692 5.67692308 -0.125 7.3125 C-1.053125 7.6528125 -1.053125 7.6528125 -2 8 C-3 7 -3 7 -3.25 4.5625 C-3.1675 3.716875 -3.085 2.87125 -3 2 C-2.01 1.34 -1.02 0.68 0 0 Z " fill="#A9A9AA" transform="translate(80,93)"/>
<path d="M0 0 C0.66 0.66 1.32 1.32 2 2 C1.9765625 4.1640625 1.9765625 4.1640625 1.625 6.625 C1.51414062 7.44226562 1.40328125 8.25953125 1.2890625 9.1015625 C1.19367187 9.72804688 1.09828125 10.35453125 1 11 C0.34 11 -0.32 11 -1 11 C-1.33 11.99 -1.66 12.98 -2 14 C-2.66 14 -3.32 14 -4 14 C-3.00956295 9.16371695 -2.04301154 4.52381127 0 0 Z " fill="#4A4A4A" transform="translate(29,39)"/>
<path d="M0 0 C1.32 0.66 2.64 1.32 4 2 C3.67 2.66 3.34 3.32 3 4 C3.66 4 4.32 4 5 4 C4.67 4.66 4.34 5.32 4 6 C2.35 6 0.7 6 -1 6 C-1.33 7.32 -1.66 8.64 -2 10 C-2.6875 6.6875 -2.6875 6.6875 -3 3 C-1.5625 1.0625 -1.5625 1.0625 0 0 Z " fill="#868686" transform="translate(26,25)"/>
<path d="M0 0 C0.66 0 1.32 0 2 0 C4.33333333 4.66666667 6.66666667 9.33333333 9 14 C7.1875 13.8125 7.1875 13.8125 5 13 C1.89465368 9.0585989 1.0587038 4.80488647 0 0 Z " fill="#161616" transform="translate(26,76)"/>
<path d="M0 0 C1.98 0.66 3.96 1.32 6 2 C5.67 2.66 5.34 3.32 5 4 C4.34 4 3.68 4 3 4 C3 5.32 3 6.64 3 8 C2.34 8 1.68 8 1 8 C0.01 6.02 -0.98 4.04 -2 2 C-1.34 1.34 -0.68 0.68 0 0 Z " fill="#272727" transform="translate(74,91)"/>
<path d="M0 0 C1 3 1 3 0.0625 5.1875 C-0.288125 5.785625 -0.63875 6.38375 -1 7 C-1.99 6.67 -2.98 6.34 -4 6 C-4.33 5.01 -4.66 4.02 -5 3 C-6.65 2.67 -8.3 2.34 -10 2 C-10 1.67 -10 1.34 -10 1 C-6.7 0.67 -3.4 0.34 0 0 Z " fill="#0B0B0B" transform="translate(101,76)"/>
<path d="M0 0 C0.94875 0.04125 1.8975 0.0825 2.875 0.125 C2.545 1.115 2.215 2.105 1.875 3.125 C-0.125 3.79166667 -2.125 4.45833333 -4.125 5.125 C-4.455 6.115 -4.785 7.105 -5.125 8.125 C-5.25 5.25 -5.25 5.25 -5.125 2.125 C-3.125 0.125 -3.125 0.125 0 0 Z " fill="#DBDADB" transform="translate(64.125,59.875)"/>
<path d="M0 0 C0 3 0 3 -1 6 C-1.99 6.66 -2.98 7.32 -4 8 C-4.33 8.99 -4.66 9.98 -5 11 C-5.12375 10.360625 -5.2475 9.72125 -5.375 9.0625 C-5.58125 8.381875 -5.7875 7.70125 -6 7 C-6.66 6.67 -7.32 6.34 -8 6 C-7.67 5.01 -7.34 4.02 -7 3 C-3.4375 1.3125 -3.4375 1.3125 0 0 Z " fill="#959595" transform="translate(52,32)"/>
<path d="M0 0 C0.66 0 1.32 0 2 0 C2 0.66 2 1.32 2 2 C2.66 2 3.32 2 4 2 C3.67 3.65 3.34 5.3 3 7 C0 7 0 7 -3 5 C-1.68 4.34 -0.36 3.68 1 3 C0.67 2.01 0.34 1.02 0 0 Z " fill="#F8F8F8" transform="translate(49,26)"/>
<path d="M0 0 C0.66 0 1.32 0 2 0 C2 0.99 2 1.98 2 3 C2.66 3 3.32 3 4 3 C4 3.66 4 4.32 4 5 C3.01 5.495 3.01 5.495 2 6 C1.01 7.485 1.01 7.485 0 9 C-0.33 8.01 -0.66 7.02 -1 6 C-1.66 5.67 -2.32 5.34 -3 5 C-3 4.34 -3 3.68 -3 3 C-2.01 3 -1.02 3 0 3 C0 2.01 0 1.02 0 0 Z " fill="#4B4A4B" transform="translate(14,70)"/>
<path d="M0 0 C-0.875 4.75 -0.875 4.75 -2 7 C-2.66 7 -3.32 7 -4 7 C-3.67 7.99 -3.34 8.98 -3 10 C-3.66 10 -4.32 10 -5 10 C-5.75 7.25 -5.75 7.25 -6 4 C-2.94736842 0 -2.94736842 0 0 0 Z " fill="#B3B2B3" transform="translate(58,22)"/>
<path d="M0 0 C0.75 1.75 0.75 1.75 1 4 C-0.8125 6.25 -0.8125 6.25 -3 8 C-3.66 8 -4.32 8 -5 8 C-4.67 7.01 -4.34 6.02 -4 5 C-4.66 4.34 -5.32 3.68 -6 3 C-2.25 0 -2.25 0 0 0 Z " fill="#CBCBCB" transform="translate(65,22)"/>
<path d="M0 0 C0.99 0.495 0.99 0.495 2 1 C3.1577506 4.47325181 3.06866652 7.36067448 3 11 C2.01 11 1.02 11 0 11 C0 7.37 0 3.74 0 0 Z " fill="#848383" transform="translate(113,56)"/>
<path d="M0 0 C2.475 0.495 2.475 0.495 5 1 C5.93423645 4.01031744 6.04449911 4.86650268 5 8 C5 7.34 5 6.68 5 6 C4.01 5.67 3.02 5.34 2 5 C2 4.01 2 3.02 2 2 C1.34 2 0.68 2 0 2 C0 1.34 0 0.68 0 0 Z " fill="#F4F3F4" transform="translate(67,92)"/>
<path d="M0 0 C1.32 0 2.64 0 4 0 C4.33 2.31 4.66 4.62 5 7 C4.34 7 3.68 7 3 7 C0.70351351 4.4385343 0 3.52032428 0 0 Z " fill="#B4B4B4" transform="translate(37,89)"/>
<path d="M0 0 C1 3 1 3 0.0625 5.1875 C-0.4634375 6.0846875 -0.4634375 6.0846875 -1 7 C-2.98 7 -4.96 7 -7 7 C-6.67 6.34 -6.34 5.68 -6 5 C-5.34 5 -4.68 5 -4 5 C-4 4.34 -4 3.68 -4 3 C-3.01 3 -2.02 3 -1 3 C-0.67 2.01 -0.34 1.02 0 0 Z " fill="#C5C4C5" transform="translate(40,38)"/>
<path d="M0 0 C2.31 0 4.62 0 7 0 C4.42215154 2.64752004 2.08351902 4.94432065 -1 7 C-1 6.01 -1 5.02 -1 4 C-0.34 4 0.32 4 1 4 C0.67 2.68 0.34 1.36 0 0 Z " fill="#EAE9EA" transform="translate(65,22)"/>
<path d="M0 0 C0.99386719 0.02707031 1.98773438 0.05414062 3.01171875 0.08203125 C4.15060547 0.13423828 4.15060547 0.13423828 5.3125 0.1875 C2.19339144 1.98025866 -0.36432428 2.53040718 -3.9375 2.8125 C-4.82953125 2.88726563 -5.7215625 2.96203125 -6.640625 3.0390625 C-7.31609375 3.08804687 -7.9915625 3.13703125 -8.6875 3.1875 C-6.10291354 -0.17334451 -4.11082043 -0.14508778 0 0 Z " fill="#151515" transform="translate(57.6875,20.8125)"/>
<path d="M0 0 C0.33 0.99 0.66 1.98 1 3 C0.34 3 -0.32 3 -1 3 C-1.33 3.99 -1.66 4.98 -2 6 C-2.66 6 -3.32 6 -4 6 C-4.33 4.68 -4.66 3.36 -5 2 C-2 0 -2 0 0 0 Z " fill="#969696" transform="translate(98,101)"/>
<path d="M0 0 C2.97 0 5.94 0 9 0 C7.02 0.99 7.02 0.99 5 2 C3.29078411 3.5412312 3.29078411 3.5412312 2 5 C1.01 4.01 0.02 3.02 -1 2 C-0.67 1.34 -0.34 0.68 0 0 Z " fill="#878787" transform="translate(33,84)"/>
<path d="M0 0 C2.31 0 4.62 0 7 0 C6.67 0.99 6.34 1.98 6 3 C6 2.34 6 1.68 6 1 C4.576875 1.99 4.576875 1.99 3.125 3 C0 5 0 5 -2 5 C-2 4.34 -2 3.68 -2 3 C-1.34 3 -0.68 3 0 3 C0 2.01 0 1.02 0 0 Z " fill="#EBEAEB" transform="translate(37,85)"/>
<path d="M0 0 C0.99 0.33 1.98 0.66 3 1 C3.625 3.3125 3.625 3.3125 4 6 C3.01 7.485 3.01 7.485 2 9 C1.01 8.67 0.02 8.34 -1 8 C-0.649375 7.236875 -0.29875 6.47375 0.0625 5.6875 C1.32360884 2.95240621 1.32360884 2.95240621 0 0 Z " fill="#4B4B4B" transform="translate(94,78)"/>
<path d="M0 0 C1.32 1.32 2.64 2.64 4 4 C3.01 4.495 3.01 4.495 2 5 C1.01 6.485 1.01 6.485 0 8 C-0.33 7.01 -0.66 6.02 -1 5 C-1.66 4.34 -2.32 3.68 -3 3 C-2.01 2.01 -1.02 1.02 0 0 Z " fill="#383838" transform="translate(88,82)"/>
<path d="M0 0 C1.32 0.66 2.64 1.32 4 2 C4 2.66 4 3.32 4 4 C1.625 5.6875 1.625 5.6875 -1 7 C-1.66 6.67 -2.32 6.34 -3 6 C-2 4 -1 2 0 0 Z " fill="#030303" transform="translate(76,99)"/>
<path d="M0 0 C5.94 0.99 5.94 0.99 12 2 C12 2.33 12 2.66 12 3 C7.71 3 3.42 3 -1 3 C-0.67 2.01 -0.34 1.02 0 0 Z " fill="#EDEDED" transform="translate(81,60)"/>
<path d="M0 0 C0.66 0 1.32 0 2 0 C3.09658936 3.28976808 2.79953138 4.71303767 2 8 C1.34 7.34 0.68 6.68 0 6 C0 5.01 0 4.02 0 3 C-0.66 2.67 -1.32 2.34 -2 2 C-1.34 1.34 -0.68 0.68 0 0 Z " fill="#616161" transform="translate(41,86)"/>
<path d="M0 0 C0.33 0.66 0.66 1.32 1 2 C0.01 2.33 -0.98 2.66 -2 3 C-3.37195574 4.29355827 -4.71182656 5.62298702 -6 7 C-6 4 -6 4 -4 1 C-1.875 0.3125 -1.875 0.3125 0 0 Z " fill="#D9D9D9" transform="translate(38,34)"/>
<path d="M0 0 C0 3 0 3 -1.5 4.6875 C-1.995 5.120625 -2.49 5.55375 -3 6 C-3.99 5.67 -4.98 5.34 -6 5 C-5.67 4.01 -5.34 3.02 -5 2 C-3 1.375 -3 1.375 -1 1 C-0.67 0.67 -0.34 0.34 0 0 Z " fill="#767676" transform="translate(38,17)"/>
<path d="M0 0 C3 2 3 2 4 4 C3.01 4 2.02 4 1 4 C1 4.66 1 5.32 1 6 C0.34 6 -0.32 6 -1 6 C-1 5.34 -1 4.68 -1 4 C-1.66 3.67 -2.32 3.34 -3 3 C-2.01 2.01 -1.02 1.02 0 0 Z " fill="#F8F7F8" transform="translate(35,37)"/>
</svg>
